<?xml version="1.0" encoding="utf-8"?>
<!-- Generator: Adobe Illustrator 19.0.0, SVG Export Plug-In . SVG Version: 6.00 Build 0)  -->
<svg version="1.1" id="Layer_1" xmlns="http://www.w3.org/2000/svg" xmlns:xlink="http://www.w3.org/1999/xlink" x="0px" y="0px"
	 viewBox="0 0 30 30" style="enable-background:new 0 0 30 30;" xml:space="preserve">
<style type="text/css">
	.st0{opacity:0.5;fill:#A02F2E;}
	.st1{opacity:0.8;fill:#A02F2E;}
</style>
<path id="XMLID_2_" class="st0" d="M23.2,23.2c-4.4,4.4-12,4.4-16.4,0s-4.4-12,0-16.4s12-4.4,16.4,0S27.6,18.8,23.2,23.2z"/>
<path id="XMLID_1_" class="st0" d="M20.4,20.4c-2.9,2.9-7.9,2.9-10.8,0s-2.9-7.9,0-10.8s7.9-2.9,10.8,0S23.3,17.5,20.4,20.4z"/>
<path id="XMLID_3_" class="st1" d="M17.5,17.5c-1.3,1.3-3.7,1.3-5,0c-1.3-1.3-1.3-3.7,0-5s3.7-1.3,5,0
	C18.8,13.8,18.8,16.2,17.5,17.5z"/>
</svg>
