<?xml version="1.0" encoding="utf-8"?>
<!-- Generator: Adobe Illustrator 19.0.0, SVG Export Plug-In . SVG Version: 6.00 Build 0)  -->
<svg version="1.1" id="Layer_1" xmlns="http://www.w3.org/2000/svg" xmlns:xlink="http://www.w3.org/1999/xlink" x="0px" y="0px"
	 viewBox="0 0 50 50" style="enable-background:new 0 0 50 50;" xml:space="preserve">
<style type="text/css">
	.st0{opacity:0.5;fill:#A1312F;enable-background:new    ;}
	.st1{opacity:0.8;fill:#A1312F;enable-background:new    ;}
</style>
<path id="XMLID_2_" class="st0" d="M39.3,39.3c-7.7,7.7-20.9,7.7-28.5,0s-7.7-20.9,0-28.5s20.9-7.7,28.5,0S46.9,31.6,39.3,39.3z"/>
<path id="XMLID_1_" class="st0" d="M34.6,34.6c-5.2,5.2-14.1,5.2-19.2,0s-5.2-14.1,0-19.2s14.1-5.2,19.2,0S39.8,29.5,34.6,34.6z"/>
<path id="XMLID_3_" class="st1" d="M30.4,30.4c-2.8,2.8-8,2.8-10.8,0s-2.8-8,0-10.8s8-2.8,10.8,0S33.2,27.6,30.4,30.4z"/>
</svg>
