<?xml version="1.0" encoding="utf-8"?>
<!-- Generator: Adobe Illustrator 16.0.4, SVG Export Plug-In . SVG Version: 6.00 Build 0)  -->
<!DOCTYPE svg PUBLIC "-//W3C//DTD SVG 1.1//EN" "http://www.w3.org/Graphics/SVG/1.1/DTD/svg11.dtd">
<svg version="1.1" id="Layer_1" xmlns="http://www.w3.org/2000/svg" xmlns:xlink="http://www.w3.org/1999/xlink" x="0px" y="0px"
	 width="50px" height="50px" viewBox="0 0 50 50" enable-background="new 0 0 50 50" xml:space="preserve">
<g>
	<path fill="#929B9B" d="M17.737,25.016c0.01,3.995,3.268,7.245,7.263,7.245h0.015c1.941-0.003,3.765-0.762,5.134-2.139
		c1.367-1.375,2.117-3.199,2.112-5.135c-0.004-3.996-3.268-7.248-7.276-7.248C20.985,17.745,17.733,21.009,17.737,25.016z
		 M21.054,24.953c-0.002-2.176,1.77-3.949,3.949-3.952c2.172,0,3.94,1.767,3.942,3.938c0.002,1.053-0.405,2.042-1.146,2.786
		c-0.743,0.747-1.735,1.159-2.792,1.162H25C22.83,28.887,21.06,27.122,21.054,24.953z"/>
	<path fill="#929B9B" d="M47,23.48h-5.179c-0.723-8.1-7.202-14.617-15.302-15.309V2.998h-3.038v5.181
		C15.382,8.901,8.864,15.38,8.173,23.48H3l0.006,3.038h5.173c0.724,8.098,7.201,14.612,15.303,15.304v5.18h3.038v-5.183
		c8.095-0.723,14.61-7.198,15.309-15.301H47V23.48z M38.953,24.972c0.009,3.723-1.438,7.228-4.072,9.871s-6.136,4.103-9.885,4.108
		c-7.681,0-13.936-6.246-13.943-13.924c-0.015-7.693,6.229-13.966,13.92-13.982L25,10.799l0,0v0.246
		C32.68,11.045,38.939,17.292,38.953,24.972z"/>
</g>
</svg>
