<svg id="Layer_1" xmlns="http://www.w3.org/2000/svg" viewBox="0 0 480 60"><style>.st0{fill:#989798;} .st1{fill:#29AAE1;} .st2{fill:none;stroke:#29AAE1;stroke-width:3;stroke-linecap:round;stroke-linejoin:round;} .st3{fill:none;stroke:#29AAE1;stroke-width:3;stroke-linecap:round;stroke-linejoin:round;stroke-dasharray:1.8829,4.7073;} .st4{fill:none;stroke:#29AAE1;stroke-width:3;stroke-linecap:round;stroke-linejoin:round;stroke-dasharray:1.2593,3.1482;} .st5{fill:none;stroke:#29AAE1;stroke-width:3;stroke-linecap:round;stroke-linejoin:round;stroke-dasharray:1.8976,4.7441;} .st6{fill:none;stroke:#29AAE1;stroke-width:3;stroke-linecap:round;stroke-linejoin:round;stroke-dasharray:1.9148,4.787;} .st7{fill:none;stroke:#29AAE1;stroke-width:3;stroke-linecap:round;stroke-linejoin:round;stroke-dasharray:1.9881,4.9701;} .st8{fill:#A5A5A5;}</style><path class="st0" d="M55 52.4L40.6 38c2.9-3.5 4.6-8 4.6-12.8C45.2 14 36.2 5 25.1 5 14 5 5 14 5 25.1c0 11.1 9 20.1 20.1 20.1 4.9 0 9.4-1.7 12.8-4.6L52.4 55l2.6-2.6zM7.1 25.1c0-9.9 8.1-18 18-18s18 8.1 18 18-8.1 18-18 18-18-8.1-18-18z"/><path class="st1" d="M115 52.4L100.6 38c2.9-3.5 4.6-8 4.6-12.8C105.2 14 96.2 5 85.1 5 74 5 65 14 65 25.1c0 11.1 9 20.1 20.1 20.1 4.9 0 9.4-1.7 12.8-4.6L112.4 55l2.6-2.6zM67.1 25.1c0-9.9 8.1-18 18-18s18 8.1 18 18-8.1 18-18 18-18-8.1-18-18zM132.1 7c-4.2 0-7.6 3.4-7.6 7.6 0 1.4.4 2.7 1 3.8l6.6 11.3 6.5-11.3c.6-1.1 1-2.4 1-3.8 0-4.2-3.3-7.6-7.5-7.6zm0 9.8c-1.3 0-2.3-1-2.3-2.3 0-1.3 1-2.3 2.3-2.3 1.3 0 2.3 1 2.3 2.3 0 1.3-1.1 2.3-2.3 2.3zM167.9 30.3c-4.2 0-7.6 3.4-7.6 7.6 0 1.4.4 2.7 1 3.8l6.5 11.3 6.6-11.3c.6-1.1 1-2.4 1-3.8.1-4.2-3.3-7.6-7.5-7.6zm0 9.8c-1.3 0-2.3-1-2.3-2.3 0-1.3 1-2.3 2.3-2.3 1.3 0 2.3 1 2.3 2.3 0 1.3-1 2.3-2.3 2.3z"/><path id="XMLID_15_" class="st2" d="M132.6 28.4h1"/><path id="XMLID_14_" class="st3" d="M138.4 28.4h10.8"/><path id="XMLID_13_" class="st2" d="M151.5 28.4h1v1"/><path id="XMLID_12_" class="st4" d="M152.5 32.6v2.8"/><path id="XMLID_11_" class="st2" d="M152.5 37v1h-1"/><path id="XMLID_10_" class="st5" d="M146.8 38h-4.3"/><path id="XMLID_9_" class="st2" d="M140.1 38h-1v1"/><path id="XMLID_8_" class="st6" d="M139.1 43.8v4.3"/><path id="XMLID_7_" class="st2" d="M139.1 50.5v1h1"/><path id="XMLID_6_" class="st7" d="M145.1 51.5h18.4"/><path id="XMLID_5_" class="st2" d="M166 51.5h1"/><path class="st0" d="M206 34.6l6.1 20.4L235 5l-50 24 21 5.6zm6.7 14.5l-4.6-16.6-16.8-4.3 39.6-18.9-18.2 39.8z"/><path class="st1" d="M266 34.6l6.1 20.4L295 5l-50 24 21 5.6zm6.7 14.5l-4.6-16.6-16.8-4.3 39.6-18.9-18.2 39.8z"/><g id="XMLID_24_"><path id="XMLID_26_" class="st1" d="M353.478 55.026L304.97 6.52l1.486-1.486 48.507 48.507z"/><path id="XMLID_25_" class="st1" d="M304.966 53.48L353.474 4.97l1.484 1.485-48.507 48.507z"/></g><path class="st0" d="M390 5c-9.2 0-16.7 7.5-16.7 16.7 0 3 .8 5.9 2.2 8.3L390 55l14.4-25c1.4-2.5 2.2-5.3 2.2-8.3.1-9.2-7.4-16.7-16.6-16.7zm0 21.7c-2.8 0-5-2.2-5-5s2.2-5 5-5 5 2.2 5 5c0 2.7-2.2 5-5 5z"/><path class="st8" d="M463.9 9.2c-3.6-2.4-7.7-3.8-12.1-4.1-.2 0-.3 0-.5-.1h-2.5l-.8.1c-.5.1-1 .1-1.5.2-7.2 1.1-13 4.8-17.2 10.9-2.4 3.6-3.8 7.7-4.1 12.1 0 .1 0 .3-.1.5v2.5l.1.7c.1.5.1 1.1.2 1.6 1.2 7.8 5.3 13.8 12 17.9 4 2.5 8.6 3.6 13.5 3.5 11.8-.4 21.5-8.7 23.7-20.2.1-.6.2-1.3.3-2 0-.3.1-.7.1-1 0-.1 0-.3.1-.4v-2.6l-.1-.8c-.1-.5-.1-1-.2-1.5-1.2-7.3-4.9-13.1-10.9-17.3zm-6.9-1c4.8 1.5 8.6 4.3 11.7 8.6l.7.9-7.5 3.5-.3-1c-1.3-3.9-3.1-7.3-5.6-10.5l-2-2.5 3 1zm3.7 27.2l-.2 1-1-.2c-6.3-1.5-12.6-1.5-18.9 0l-.9.2-.3-.8c-.8-2.2-.8-8.8 0-11.1l.3-.9.9.2c6.3 1.5 12.6 1.6 18.9 0l1-.2.2 1c.6 3.6.6 7.1 0 10.8zM448.3 8.2c.4-.3.9-.8 1.7-.8.7 0 1.3.4 1.7.8 3.6 3.3 6.2 7.4 7.9 12.1 0 .1.1.2.1.3l.3 1.2-1 .2c-2.9.7-5.9 1.1-8.8 1.1-3 0-6.1-.4-9.1-1.1l-1.1-.3.4-1c.1-.4.3-.7.4-1.1.3-.8.6-1.6 1-2.3 1.5-3.6 3.8-6.6 6.5-9.1zm-17 8.4c3.1-4.2 6.9-6.9 11.6-8.4l3-1-2 2.5c-2.5 3.2-4.4 6.6-5.6 10.4l-.3 1-7.4-3.6.7-.9zm-2.1 23.2c-2.9-6.5-2.9-13 0-19.5l.4-.9 8 3.8-.1.7c-.8 4.1-.8 8.2 0 12.3l.1.7-8 3.8-.4-.9zm13.8 12c-4.7-1.5-8.5-4.3-11.6-8.4l-.7-.9 1.1-.5c1.5-.7 2.9-1.4 4.3-2.1l2-1 .3 1c1.3 3.8 3.1 7.2 5.6 10.4l2 2.5-3-1zm8.7 0c-.4.3-.9.8-1.7.8-.8 0-1.3-.4-1.7-.8-3.6-3.3-6.2-7.3-7.8-12 0-.1-.1-.2-.1-.3l-.2-.8.7-.5c2.5-1.1 7.7-1.2 9.3-1.2 1.5 0 6.6.1 8.9 1.2l.8.4-.3.8c-.6 1.8-1.3 3.5-2.3 5.2-1.4 2.7-3.4 5.2-5.6 7.2zm17.1-8.5c-3.1 4.2-6.9 7-11.7 8.6l-3.1 1 2-2.5c2.5-3.2 4.4-6.6 5.7-10.5l.3-1 1 .5c1.8.9 3.6 1.7 5.4 2.5l1.1.5-.7.9zm2-3.6l-.5.7-.8-.4c-1.2-.5-2.3-1.1-3.5-1.6l-3.6-1.7.1-.7c.8-4 .8-8.1 0-12.1l-.1-.7 7.8-3.6.5.6c3 3.8 3 14.7.1 19.5z"/></svg>