<?xml version="1.0" encoding="utf-8"?>
<!-- Generator: Adobe Illustrator 16.0.4, SVG Export Plug-In . SVG Version: 6.00 Build 0)  -->
<!DOCTYPE svg PUBLIC "-//W3C//DTD SVG 1.1//EN" "http://www.w3.org/Graphics/SVG/1.1/DTD/svg11.dtd">
<svg version="1.1" xmlns="http://www.w3.org/2000/svg" xmlns:xlink="http://www.w3.org/1999/xlink" x="0px" y="0px" width="px"
	 height="54px" viewBox="0 0 432 54" enable-background="new 0 0 432 54" xml:space="preserve">
<g id="Layer_1">
	<path fill="#989898" d="M51.999,49.381l-14.42-14.422c2.899-3.485,4.644-7.962,4.644-12.848C42.223,11.003,33.22,2,22.112,2
		C11.006,2,2.001,11.003,2.001,22.111c0,11.106,9.005,20.11,20.111,20.11c4.887,0,9.363-1.745,12.848-4.643L49.38,52L51.999,49.381z
		 M4.118,22.111c0-9.922,8.07-17.994,17.994-17.994c9.921,0,17.994,8.071,17.994,17.994c0,9.922-8.073,17.994-17.994,17.994
		C12.188,40.105,4.118,32.033,4.118,22.111z"/>
	<path fill="#27AAE1" d="M105.999,49.381l-14.42-14.422c2.899-3.485,4.644-7.962,4.644-12.848C96.223,11.003,87.22,2,76.112,2
		c-11.106,0-20.111,9.003-20.111,20.111c0,11.106,9.005,20.11,20.111,20.11c4.887,0,9.362-1.745,12.848-4.643L103.38,52
		L105.999,49.381z M58.118,22.111c0-9.922,8.07-17.994,17.994-17.994c9.92,0,17.994,8.071,17.994,17.994
		c0,9.922-8.073,17.994-17.994,17.994C66.188,40.105,58.118,32.033,58.118,22.111z"/>
	<g>
		<path fill="#27AAE1" d="M117.086,4c-4.178,0-7.566,3.388-7.566,7.564c0,1.38,0.373,2.668,1.017,3.783l6.55,11.346l6.547-11.346
			c0.645-1.115,1.017-2.403,1.017-3.783C124.649,7.388,121.263,4,117.086,4z M117.086,13.833c-1.255,0-2.27-1.015-2.27-2.269
			c0-1.251,1.015-2.268,2.27-2.268c1.252,0,2.269,1.017,2.269,2.268C119.354,12.817,118.338,13.833,117.086,13.833z"/>
		<path fill="#27AAE1" d="M152.914,27.307c-4.177,0-7.563,3.388-7.563,7.566c0,1.379,0.373,2.668,1.017,3.781L152.914,50
			l6.55-11.346c0.645-1.113,1.017-2.402,1.017-3.781C160.48,30.695,157.092,27.307,152.914,27.307z M152.914,37.141
			c-1.252,0-2.269-1.016-2.269-2.269c0-1.253,1.017-2.269,2.269-2.269c1.255,0,2.27,1.015,2.27,2.269
			C155.184,36.125,154.169,37.141,152.914,37.141z"/>
		<g>
			<g>
				
					<line fill="none" stroke="#27AAE1" stroke-width="3" stroke-linecap="round" stroke-linejoin="round" x1="117.647" y1="25.442" x2="118.647" y2="25.442"/>
				
					<line fill="none" stroke="#27AAE1" stroke-width="3" stroke-linecap="round" stroke-linejoin="round" stroke-dasharray="1.8829,4.7073" x1="123.354" y1="25.442" x2="134.182" y2="25.442"/>
				<polyline fill="none" stroke="#27AAE1" stroke-width="3" stroke-linecap="round" stroke-linejoin="round" points="
					136.535,25.442 137.535,25.442 137.535,26.442 				"/>
				
					<line fill="none" stroke="#27AAE1" stroke-width="3" stroke-linecap="round" stroke-linejoin="round" stroke-dasharray="1.2593,3.1482" x1="137.535" y1="29.59" x2="137.535" y2="32.423"/>
				<polyline fill="none" stroke="#27AAE1" stroke-width="3" stroke-linecap="round" stroke-linejoin="round" points="
					137.535,33.998 137.535,34.998 136.535,34.998 				"/>
				
					<line fill="none" stroke="#27AAE1" stroke-width="3" stroke-linecap="round" stroke-linejoin="round" stroke-dasharray="1.8976,4.7441" x1="131.791" y1="34.998" x2="127.521" y2="34.998"/>
				<polyline fill="none" stroke="#27AAE1" stroke-width="3" stroke-linecap="round" stroke-linejoin="round" points="
					125.149,34.998 124.149,34.998 124.149,35.998 				"/>
				
					<line fill="none" stroke="#27AAE1" stroke-width="3" stroke-linecap="round" stroke-linejoin="round" stroke-dasharray="1.9148,4.787" x1="124.149" y1="40.785" x2="124.149" y2="45.093"/>
				<polyline fill="none" stroke="#27AAE1" stroke-width="3" stroke-linecap="round" stroke-linejoin="round" points="
					124.149,47.486 124.149,48.486 125.149,48.486 				"/>
				
					<line fill="none" stroke="#27AAE1" stroke-width="3" stroke-linecap="round" stroke-linejoin="round" stroke-dasharray="1.9881,4.9701" x1="130.12" y1="48.486" x2="148.509" y2="48.486"/>
				
					<line fill="none" stroke="#27AAE1" stroke-width="3" stroke-linecap="round" stroke-linejoin="round" x1="150.994" y1="48.486" x2="151.994" y2="48.486"/>
			</g>
		</g>
	</g>
	<path fill="#989898" d="M185.05,31.61l6.1,20.39l22.848-50l-49.994,23.994L185.05,31.61z M191.671,46.073l-4.619-16.554
		l-16.848-4.282l39.592-18.942L191.671,46.073z"/>
	<path fill="#27AAE1" d="M239.05,31.61l6.1,20.39l22.848-50l-49.994,23.994L239.05,31.61z M245.671,46.073l-4.619-16.554
		l-16.848-4.282l39.592-18.942L245.671,46.073z"/>
	<g>
		
			<rect x="262.701" y="25.945" transform="matrix(0.7071 0.7071 -0.7071 0.7071 106.0838 -202.1052)" fill="#27AAE1" width="68.6" height="2.11"/>
		
			<rect x="262.699" y="25.945" transform="matrix(-0.7071 0.7071 -0.7071 -0.7071 526.1045 -163.9165)" fill="#27AAE1" width="68.601" height="2.11"/>
	</g>
	<path fill="#A5A5A5" d="M418.85,6.229c-3.581-2.447-7.654-3.837-12.104-4.133c-0.16-0.008-0.341-0.045-0.52-0.091L406.206,2h-2.465
		l-0.79,0.095c-0.513,0.06-1.024,0.121-1.532,0.195c-7.248,1.124-13.036,4.78-17.197,10.868c-2.437,3.577-3.825,7.653-4.129,12.113
		c-0.008,0.15-0.042,0.317-0.083,0.485L380,25.797v2.472l0.09,0.746c0.062,0.526,0.122,1.051,0.203,1.57
		c1.226,7.779,5.262,13.809,11.997,17.917c4.031,2.463,8.586,3.63,13.493,3.486c11.75-0.359,21.508-8.682,23.728-20.24
		c0.123-0.649,0.197-1.309,0.276-2.008c0.039-0.349,0.079-0.697,0.124-1.045c0.015-0.123,0.043-0.253,0.072-0.385L430,28.227v-2.48
		l-0.09-0.758c-0.062-0.517-0.121-1.034-0.202-1.55C428.588,16.175,424.935,10.386,418.85,6.229z M412.039,5.195
		c4.788,1.525,8.618,4.323,11.713,8.553l0.695,0.949l-7.473,3.543l-0.344-1.046c-1.273-3.871-3.119-7.295-5.647-10.467l-1.994-2.503
		L412.039,5.195z M415.663,32.383l-0.182,1.017l-1.005-0.243c-6.303-1.523-12.637-1.507-18.876,0.046l-0.856,0.213l-0.295-0.831
		c-0.768-2.165-0.776-8.819-0.015-11.127l0.282-0.854l0.874,0.215c6.272,1.549,12.606,1.562,18.878,0.042l0.998-0.242l0.188,1.008
		C416.315,25.178,416.318,28.696,415.663,32.383z M403.33,5.177c0.358-0.331,0.923-0.772,1.672-0.772
		c0.746,0,1.312,0.439,1.67,0.769c3.575,3.295,6.221,7.358,7.866,12.08c0.036,0.121,0.055,0.196,0.075,0.282l0.304,1.156
		l-0.966,0.233c-2.938,0.71-5.903,1.07-8.816,1.07c-0.001,0-0.001,0-0.002,0c-3.014,0-6.089-0.386-9.14-1.146l-1.092-0.272
		l0.427-1.042c0.148-0.361,0.288-0.716,0.428-1.066c0.315-0.798,0.613-1.551,0.97-2.305C398.337,10.74,400.56,7.715,403.33,5.177z
		 M386.324,13.644c3.061-4.153,6.866-6.916,11.635-8.449l3.046-0.979l-1.986,2.508c-2.521,3.182-4.358,6.577-5.617,10.377
		l-0.348,1.047l-7.426-3.559L386.324,13.644z M384.187,36.778c-2.892-6.469-2.892-13.042-0.001-19.535l0.405-0.909l7.993,3.772
		l-0.143,0.741c-0.791,4.096-0.791,8.24,0,12.316l0.144,0.74l-7.994,3.779L384.187,36.778z M397.956,48.818
		c-4.738-1.517-8.544-4.276-11.633-8.436l-0.703-0.944l1.062-0.511c1.468-0.708,2.887-1.385,4.34-2.08l2.025-0.967l0.349,1.044
		c1.286,3.849,3.124,7.239,5.616,10.362l2.004,2.512L397.956,48.818z M406.671,48.843c-0.356,0.329-0.922,0.77-1.672,0.77
		c-0.752,0-1.315-0.442-1.674-0.774c-3.566-3.286-6.199-7.318-7.82-11.982c-0.038-0.108-0.065-0.212-0.09-0.314l-0.232-0.807
		l0.735-0.455c2.483-1.134,7.722-1.223,9.268-1.223c1.498,0,6.57,0.086,8.941,1.172l0.784,0.36l-0.264,0.821
		c-0.566,1.767-1.312,3.473-2.279,5.213C410.851,44.346,408.934,46.773,406.671,48.843z M423.761,40.26
		c-3.1,4.234-6.938,7.036-11.731,8.565l-3.065,0.978l2.011-2.512c2.524-3.156,4.375-6.577,5.656-10.459l0.345-1.043l0.992,0.468
		c1.811,0.854,3.572,1.681,5.42,2.548l1.07,0.501L423.761,40.26z M425.754,36.742l-0.452,0.734l-0.783-0.362
		c-1.161-0.536-2.32-1.075-3.495-1.622l-3.594-1.667l0.144-0.747c0.773-4.027,0.773-8.111,0-12.142l-0.144-0.747l7.761-3.596
		l0.476,0.602C428.656,20.985,428.705,31.946,425.754,36.742z"/>
	<path fill="#989898" d="M350.999,2c-9.203,0-16.666,7.465-16.666,16.667c0,3.04,0.82,5.88,2.239,8.333L350.999,52l14.43-24.999
		c1.421-2.454,2.239-5.293,2.239-8.333C367.668,9.465,360.204,2,350.999,2z M350.999,23.666c-2.759,0-4.998-2.237-4.998-4.999
		c0-2.758,2.239-4.998,4.998-4.998c2.762,0,5.001,2.24,5.001,4.998C356,21.429,353.761,23.666,350.999,23.666z"/>
</g>
</svg>
