<?xml version="1.0" encoding="utf-8"?>
<!-- Generator: Adobe Illustrator 19.0.0, SVG Export Plug-In . SVG Version: 6.00 Build 0)  -->
<svg version="1.1" id="Layer_1" xmlns="http://www.w3.org/2000/svg" xmlns:xlink="http://www.w3.org/1999/xlink" x="0px" y="0px"
	 viewBox="0 0 40 40" style="enable-background:new 0 0 40 40;" xml:space="preserve">
<style type="text/css">
	.st0{fill:#FFFFFF;stroke:#DEDDDD;stroke-width:2;stroke-miterlimit:10;}
	.st1{fill:#939C9B;}
</style>
<polygon id="XMLID_1_" class="st0" points="20,39.1 3.5,29.5 3.5,10.5 20,0.9 36.5,10.5 36.5,29.5 "/>
<g>
	<path class="st1" d="M15.9,20c0,2.3,1.9,4.1,4.1,4.1h0c1.1,0,2.1-0.4,2.9-1.2c0.8-0.8,1.2-1.8,1.2-2.9c0-2.3-1.9-4.1-4.1-4.1
		C17.7,15.9,15.9,17.7,15.9,20z M17.8,20c0-1.2,1-2.2,2.2-2.2c1.2,0,2.2,1,2.2,2.2c0,0.6-0.2,1.2-0.7,1.6c-0.4,0.4-1,0.7-1.6,0.7h0
		C18.8,22.2,17.8,21.2,17.8,20z"/>
	<path class="st1" d="M32.5,19.1h-2.9c-0.4-4.6-4.1-8.3-8.7-8.7V7.5h-1.7v2.9c-4.6,0.4-8.3,4.1-8.7,8.7H7.5l0,1.7h2.9
		c0.4,4.6,4.1,8.3,8.7,8.7v2.9h1.7v-2.9c4.6-0.4,8.3-4.1,8.7-8.7h2.9V19.1z M27.9,20c0,2.1-0.8,4.1-2.3,5.6
		c-1.5,1.5-3.5,2.3-5.6,2.3c-4.4,0-7.9-3.5-7.9-7.9c0-4.4,3.5-7.9,7.9-7.9l0-0.1l0,0v0.1C24.4,12.1,27.9,15.6,27.9,20z"/>
</g>
</svg>
