<svg id="Layer_1" xmlns="http://www.w3.org/2000/svg" viewBox="0 0 40 40"><style>.st0{fill:#FFFFFF;stroke:#DEDDDD;stroke-width:2;stroke-miterlimit:10;} .st1{fill:#939C9B;}</style><path id="XMLID_1_" class="st0" d="M20 39.1L3.5 29.5v-19L20 .9l16.5 9.6v19z"/><path class="st1" d="M15.9 20c0 2.3 1.9 4.1 4.1 4.1 1.1 0 2.1-.4 2.9-1.2.8-.8 1.2-1.8 1.2-2.9 0-2.3-1.9-4.1-4.1-4.1-2.3 0-4.1 1.8-4.1 4.1zm1.9 0c0-1.2 1-2.2 2.2-2.2 1.2 0 2.2 1 2.2 2.2 0 .6-.2 1.2-.7 1.6-.4.4-1 .7-1.6.7-1.1-.1-2.1-1.1-2.1-2.3z"/><path class="st1" d="M32.5 19.1h-2.9c-.4-4.6-4.1-8.3-8.7-8.7V7.5h-1.7v2.9c-4.6.4-8.3 4.1-8.7 8.7h-3v1.7h2.9c.4 4.6 4.1 8.3 8.7 8.7v2.9h1.7v-2.9c4.6-.4 8.3-4.1 8.7-8.7h2.9v-1.7zm-4.6.9c0 2.1-.8 4.1-2.3 5.6-1.5 1.5-3.5 2.3-5.6 2.3-4.4 0-7.9-3.5-7.9-7.9s3.5-7.9 7.9-7.9V12v.1c4.4 0 7.9 3.5 7.9 7.9z"/></svg>